# xmcd
#
# Track frame offsets:
# 150
# 20563
# 36602
# 52727
# 69700
# 89302
# 109145
# 125732
# 146139
# 162531
# 179937
# 196479
# 216727
# 234133
# 253039
# 269222
# 289585
# 310013
#
# Disc length: 4403 seconds
#
#
# Revision: 0
# Processed by: cddbd v1.5.1PL2 Copyright (c) Steve Scherf et al.
# Submitted via: FreeRIP 2.942 
#
DISCID=27113112
DTITLE=Catterfeld - meine Welt
DYEAR=2003
DGENRE=Blues
TTITLE0=Für Dich
TTITLE1=Abendstern
TTITLE2=Niemand sonst
TTITLE3=Wenn Du mich berührst
TTITLE4=Blaue Augen
TTITLE5=Die Welt steht still
TTITLE6=Gefühle
TTITLE7=Sag mir
TTITLE8=Manchmal
TTITLE9=Unendlich weit
TTITLE10=Verwelkt
TTITLE11=Komm zurück zu mir
TTITLE12=Niemandsland
TTITLE13=Regenbogen
TTITLE14=If I could
TTITLE15=If You
TTITLE16=Für Dich - Full Version
TTITLE17=Für Dichxxxx
EXTD=
EXTT0=
EXTT1=
EXTT2=
EXTT3=
EXTT4=
EXTT5=
EXTT6=
EXTT7=
EXTT8=
EXTT9=
EXTT10=
EXTT11=
EXTT12=
EXTT13=
EXTT14=
EXTT15=
EXTT16=
EXTT17=
PLAYORDER=
